<svg xmlns="http://www.w3.org/2000/svg" viewBox="0 0 64 64" fill="none">
  <defs>
    <linearGradient id="pg" x1="4" y1="6" x2="36" y2="58" gradientUnits="userSpaceOnUse">
      <stop stop-color="#C084FC"/>
      <stop offset="0.6" stop-color="#9333EA" stop-opacity="0.75"/>
      <stop offset="1" stop-color="#6D28D9" stop-opacity="0.4"/>
    </linearGradient>
    <linearGradient id="tg" x1="60" y1="6" x2="28" y2="58" gradientUnits="userSpaceOnUse">
      <stop stop-color="#34EEB0"/>
      <stop offset="0.5" stop-color="#10C990"/>
      <stop offset="1" stop-color="#065F46"/>
    </linearGradient>
    <clipPath id="bc">
      <rect x="25" y="30" width="14" height="16"/>
    </clipPath>
  </defs>
  <!-- Teal right loop -->
  <path d="M 29,21 C 31,12 38,4 46,4 C 55,4 62,12 62,22 C 62,32 55,42 46,44 C 38,46 31,38 33,30"
        stroke="url(#tg)" stroke-width="8.5" stroke-linecap="round"/>
  <!-- Purple left loop -->
  <path d="M 35,21 C 33,12 26,4 18,4 C 9,4 2,12 2,22 C 2,32 9,42 18,44 C 26,46 33,38 31,30"
        stroke="url(#pg)" stroke-width="8.5" stroke-linecap="round"/>
  <!-- Teal clipped at bottom crossing -->
  <path d="M 29,21 C 31,12 38,4 46,4 C 55,4 62,12 62,22 C 62,32 55,42 46,44 C 38,46 31,38 33,30"
        stroke="url(#tg)" stroke-width="8.5" stroke-linecap="round" clip-path="url(#bc)"/>
</svg>
